<?xml version="1.0" encoding="utf-8"?>
<!-- Generator: Adobe Illustrator 24.2.1, SVG Export Plug-In . SVG Version: 6.00 Build 0)  -->
<svg version="1.1" id="Layer_1" xmlns="http://www.w3.org/2000/svg" xmlns:xlink="http://www.w3.org/1999/xlink" x="0px" y="0px"
	 viewBox="0 0 200 57.58" style="enable-background:new 0 0 200 57.58;" xml:space="preserve">
<style type="text/css">
	.st0{fill:none;}
	.st1{fill:#FFFFFF;}
	.st2{fill:#006937;}
	.st3{fill:#231F20;}
</style>
<g>
	<path class="st0" d="M60.4,48.08c-0.6,0-1.11,0.22-1.53,0.66c-0.41,0.44-0.67,1.04-0.75,1.78h4.35v-0.09
		c-0.02-0.7-0.22-1.26-0.6-1.7C61.5,48.3,61.01,48.08,60.4,48.08z"/>
	<path class="st0" d="M170.31,48.08c-0.6,0-1.11,0.22-1.53,0.66c-0.41,0.44-0.67,1.04-0.75,1.78h4.35v-0.09
		c-0.02-0.7-0.22-1.26-0.6-1.7C171.41,48.3,170.92,48.08,170.31,48.08z"/>
	<path class="st0" d="M196.04,48.46c-0.37-0.25-0.8-0.38-1.27-0.38c-0.72,0-1.3,0.28-1.75,0.84c-0.45,0.56-0.68,1.3-0.68,2.2v0.15
		c0,0.87,0.22,1.58,0.67,2.14c0.45,0.56,1.04,0.83,1.77,0.83c0.72,0,1.31-0.28,1.76-0.83c0.45-0.56,0.67-1.29,0.67-2.2v-0.15
		c0-0.55-0.1-1.06-0.31-1.52C196.7,49.07,196.41,48.72,196.04,48.46z"/>
	<path class="st0" d="M135.06,48.08c-0.6,0-1.11,0.22-1.53,0.66c-0.41,0.44-0.67,1.04-0.75,1.78h4.35v-0.09
		c-0.02-0.7-0.22-1.26-0.6-1.7C136.16,48.3,135.67,48.08,135.06,48.08z"/>
	<path class="st0" d="M104.54,48.08c-0.6,0-1.11,0.22-1.52,0.66c-0.41,0.44-0.67,1.04-0.76,1.78h4.35v-0.09
		c-0.02-0.7-0.22-1.26-0.6-1.7C105.64,48.3,105.15,48.08,104.54,48.08z"/>
	<path class="st0" d="M23.87,48.08c-0.6,0-1.11,0.22-1.53,0.66c-0.41,0.44-0.67,1.04-0.75,1.78h4.35v-0.09
		c-0.02-0.7-0.22-1.26-0.6-1.7C24.97,48.3,24.47,48.08,23.87,48.08z"/>
	<path class="st0" d="M116.15,48.08c-0.6,0-1.11,0.22-1.53,0.66c-0.41,0.44-0.67,1.04-0.75,1.78h4.35v-0.09
		c-0.02-0.7-0.22-1.26-0.6-1.7C117.25,48.3,116.76,48.08,116.15,48.08z"/>
	<path class="st0" d="M161.06,51.63c-0.45,0.28-0.68,0.67-0.68,1.17c0,0.41,0.15,0.74,0.45,1.01c0.3,0.27,0.69,0.4,1.18,0.4
		c0.54,0,1.02-0.13,1.44-0.39c0.42-0.26,0.73-0.61,0.92-1.04v-1.6h-1.43C162.13,51.2,161.51,51.35,161.06,51.63z"/>
	<path class="st0" d="M89.87,48.44c-0.36-0.23-0.77-0.35-1.24-0.35c-0.68,0-1.2,0.27-1.58,0.8c-0.38,0.53-0.57,1.32-0.57,2.35
		c0,0.94,0.19,1.68,0.57,2.21c0.38,0.53,0.9,0.8,1.57,0.8c0.96,0,1.66-0.42,2.09-1.25v-3.56C90.5,49.01,90.23,48.67,89.87,48.44z"/>
	<path class="st0" d="M82.02,48.46c-0.37-0.25-0.8-0.38-1.27-0.38c-0.72,0-1.3,0.28-1.75,0.84c-0.45,0.56-0.68,1.3-0.68,2.2v0.15
		c0,0.87,0.22,1.58,0.67,2.14c0.45,0.56,1.04,0.83,1.77,0.83c0.72,0,1.31-0.28,1.76-0.83c0.45-0.56,0.67-1.29,0.67-2.2v-0.15
		c0-0.55-0.1-1.06-0.31-1.52C82.68,49.07,82.39,48.72,82.02,48.46z"/>
	<path class="st0" d="M49.59,48.46c-0.37-0.25-0.8-0.38-1.27-0.38c-0.72,0-1.3,0.28-1.75,0.84c-0.45,0.56-0.68,1.3-0.68,2.2v0.15
		c0,0.87,0.22,1.58,0.67,2.14c0.45,0.56,1.04,0.83,1.77,0.83c0.72,0,1.31-0.28,1.76-0.83c0.45-0.56,0.67-1.29,0.67-2.2v-0.15
		c0-0.55-0.1-1.06-0.31-1.52C50.25,49.07,49.96,48.72,49.59,48.46z"/>
	<path class="st1" d="M58.56,6.49h-4.49c-0.8,0-1.4,0.12-1.79,0.35c-0.37,0.24-0.56,0.59-0.56,1.06v21.95
		c0,0.45,0.22,0.79,0.67,1.02c0.44,0.22,1.2,0.33,2.27,0.33h3.37c3.01,0,5.65-0.54,7.91-1.62c1.48-0.72,2.6-1.73,3.37-3.03
		c1.05-1.76,1.58-4.19,1.58-7.29c0-4.59-1.15-7.95-3.45-10.08C65.48,7.39,62.52,6.49,58.56,6.49z"/>
	<path class="st1" d="M0.5,0.5V37.2H100V0.5H0.5z M36.26,32.6H3.68v-1.39h2.7c1.05,0,1.79-0.12,2.22-0.37
		c0.43-0.26,0.64-0.63,0.64-1.12V7.92c0-0.48-0.19-0.84-0.56-1.08C8.31,6.61,7.72,6.49,6.92,6.49H3.68V5.09h31.33l0.75,9.28h-1.79
		c-0.71-2.93-1.84-4.97-3.4-6.14c-1.53-1.17-3.54-1.75-6.01-1.75h-7.75c-0.62,0-1.1,0.12-1.42,0.35c-0.32,0.24-0.48,0.6-0.48,1.08
		v9.8h3.4c1.82,0,3.29-0.45,4.41-1.36c1.14-0.91,1.75-2.29,1.84-4.17h1.84v12.74h-1.84c-0.09-2.11-0.71-3.61-1.87-4.52
		c-1.14-0.92-2.7-1.38-4.68-1.38h-3.1v10.94c0,0.4,0.19,0.7,0.56,0.91c0.39,0.21,1.03,0.32,1.92,0.32h6.12
		c6.65,0,10.48-2.95,11.49-8.85h1.93L36.26,32.6z M75.72,25.4c-0.84,1.52-2.13,2.86-3.88,4c-1.73,1.14-3.84,2-6.33,2.57
		c-1.87,0.42-4.37,0.63-7.48,0.63H39.75v-1.39h3.74c0.94,0,1.59-0.1,1.95-0.32C45.81,30.68,46,30.35,46,29.9V7.75
		c0-0.38-0.2-0.69-0.59-0.91c-0.39-0.23-0.94-0.35-1.63-0.35h-4.04V5.09h20.42c3.03,0,5.6,0.37,7.72,1.12
		c2.64,0.94,4.87,2.51,6.71,4.71c1.85,2.2,2.78,4.79,2.78,7.79C77.38,21.19,76.83,23.42,75.72,25.4z M90.79,30.78
		c0.43,0.28,1.2,0.43,2.33,0.43h3.5v1.39H78.38v-1.39h3.45c1.21,0,2-0.12,2.35-0.37c0.36-0.25,0.53-0.79,0.53-1.62V8.39
		c0-0.79-0.16-1.28-0.48-1.47c-0.5-0.28-1.42-0.43-2.75-0.43h-3.1V5.09h18.23v1.39h-3.13c-1.39,0-2.27,0.12-2.65,0.37
		c-0.36,0.24-0.53,0.74-0.53,1.53v20.83C90.31,30.05,90.47,30.57,90.79,30.78z"/>
	<path class="st2" d="M0,0v37.7h200V0H0z M199.61,37.3H100v-0.1H0.5V0.5H100v-0.1h99.61V37.3z"/>
	<path class="st2" d="M151.61,20.23c0-1.19-0.69-2.19-2.05-3c-1.37-0.81-2.97-1.21-4.82-1.21c-1.77,0-3.57,0.4-5.39,1.19
		c-1.8,0.78-3.39,2.09-4.78,3.92c-1.37,1.84-2.05,3.73-2.05,5.67c0,1.54,0.57,2.68,1.72,3.42c1.15,0.73,2.77,1.1,4.88,1.1
		c1.89,0,3.64-0.37,5.25-1.1c1.64-0.73,3.25-2.16,4.85-4.3C150.81,23.8,151.61,21.9,151.61,20.23z"/>
	<path class="st2" d="M100,0.5V37.2v0.1h99.61V0.39H100V0.5z M187.97,16.38c-0.16-0.09-0.4-0.13-0.74-0.13
		c-0.61,0-1.3,0.18-2.09,0.54c-1.48,0.71-2.94,1.95-4.38,3.74c-2.6,3.24-4.45,5.86-5.52,7.87l-2.19,4.11l-5.62,0.24l6.03-11.94
		c0.65-1.28,0.98-2.15,0.98-2.62c0-0.59-0.35-1.04-1.04-1.34c-0.67-0.31-1.78-0.46-3.33-0.47h-1.48l0.71-1.28l11.25-0.33l-3.16,7.51
		c2.02-2.57,3.57-4.29,4.65-5.17c1.08-0.88,2.24-1.53,3.5-1.94c1.26-0.41,2.49-0.61,3.7-0.61c1.46,0,2.67,0.26,3.64,0.78
		c0.99,0.52,1.48,1.17,1.48,1.93c0,0.72-0.36,1.3-1.08,1.75c-0.7,0.43-1.56,0.65-2.59,0.65c-0.83,0-1.54-0.16-2.12-0.48
		c-0.58-0.32-0.88-0.71-0.88-1.17c0-0.19,0.11-0.44,0.34-0.76c0.13-0.2,0.2-0.36,0.2-0.48C188.21,16.6,188.13,16.47,187.97,16.38z
		 M143.59,32.17c-1.77,0.58-3.53,0.87-5.25,0.87c-3.35,0-6.17-0.67-8.49-2.01c-2.31-1.35-3.47-3.06-3.47-5.13
		c0-1.89,0.9-3.73,2.69-5.52c1.82-1.81,4.14-3.23,6.97-4.26c2.83-1.04,5.58-1.56,8.25-1.56c2.15,0,4.05,0.35,5.69,1.06
		c1.66,0.7,2.78,1.62,3.37,2.77l1.95-3.29l5.29-0.33l-7.37,14.17c-0.2,0.38-0.3,0.77-0.3,1.15c0,0.35,0.12,0.61,0.37,0.8
		c0.27,0.18,0.58,0.28,0.94,0.28c0.67,0,1.44-0.25,2.29-0.76c1.66-0.98,3.22-2.29,4.68-3.94l1.95,0.48
		c-3.53,4.07-7.13,6.1-10.81,6.1c-1.19,0-2.18-0.25-2.96-0.74c-0.79-0.51-1.18-1.16-1.18-1.95l0.07-0.76
		C146.93,30.73,145.37,31.59,143.59,32.17z M111.57,31.04c0.22,0.16,0.52,0.24,0.88,0.24c1.86,0,4.35-1.6,7.48-4.82l1.88,0.56
		c-3.66,4.02-7.38,6.03-11.18,6.03c-1.35,0-2.43-0.25-3.27-0.76c-0.83-0.51-1.24-1.22-1.24-2.12c0-0.69,0.32-1.68,0.98-2.96
		l9.97-19.23c0.11-0.25,0.17-0.44,0.17-0.58c0-0.3-0.25-0.53-0.74-0.69c-0.65-0.21-1.68-0.31-3.1-0.32h-2.42L111.67,5l12.59-0.35
		l-12.39,23.9c-0.43,0.79-0.64,1.37-0.64,1.73C111.24,30.63,111.35,30.88,111.57,31.04z"/>
	<path class="st2" d="M23.52,31.21h-6.12c-0.89,0-1.53-0.1-1.92-0.32c-0.37-0.21-0.56-0.51-0.56-0.91V19.04h3.1
		c1.98,0,3.54,0.46,4.68,1.38c1.16,0.91,1.78,2.41,1.87,4.52h1.84V12.2h-1.84c-0.09,1.87-0.7,3.26-1.84,4.17
		c-1.12,0.91-2.59,1.36-4.41,1.36h-3.4v-9.8c0-0.48,0.16-0.84,0.48-1.08c0.32-0.23,0.79-0.35,1.42-0.35h7.75
		c2.48,0,4.48,0.58,6.01,1.75c1.55,1.17,2.68,3.21,3.4,6.14h1.79l-0.75-9.28H3.68v1.39h3.23c0.8,0,1.39,0.12,1.76,0.35
		c0.37,0.24,0.56,0.6,0.56,1.08v21.8c0,0.48-0.21,0.86-0.64,1.12c-0.43,0.25-1.17,0.37-2.22,0.37h-2.7v1.39h32.58l0.67-10.25h-1.93
		C33.99,28.26,30.16,31.21,23.52,31.21z"/>
	<path class="st2" d="M67.89,6.21c-2.12-0.74-4.7-1.12-7.72-1.12H39.75v1.39h4.04c0.7,0,1.24,0.12,1.63,0.35
		C45.81,7.06,46,7.37,46,7.75V29.9c0,0.45-0.19,0.78-0.56,0.99c-0.36,0.21-1.01,0.32-1.95,0.32h-3.74v1.39h18.28
		c3.12,0,5.61-0.21,7.48-0.63c2.49-0.57,4.61-1.43,6.33-2.57c1.75-1.14,3.04-2.47,3.88-4c1.1-1.98,1.66-4.22,1.66-6.7
		c0-3-0.93-5.6-2.78-7.79C72.76,8.72,70.53,7.15,67.89,6.21z M69.31,26.56c-0.77,1.3-1.89,2.31-3.37,3.03
		c-2.26,1.08-4.9,1.62-7.91,1.62h-3.37c-1.07,0-1.83-0.11-2.27-0.33c-0.45-0.23-0.67-0.58-0.67-1.02V7.9c0-0.47,0.19-0.82,0.56-1.06
		c0.39-0.23,0.99-0.35,1.79-0.35h4.49c3.96,0,6.91,0.9,8.87,2.7c2.3,2.13,3.45,5.49,3.45,10.08C70.89,22.37,70.36,24.8,69.31,26.56z
		"/>
	<path class="st2" d="M90.84,6.86c0.37-0.25,1.26-0.37,2.65-0.37h3.13V5.09H78.38v1.39h3.1c1.34,0,2.25,0.14,2.75,0.43
		c0.32,0.19,0.48,0.68,0.48,1.47v20.83c0,0.83-0.18,1.37-0.53,1.62c-0.36,0.25-1.14,0.37-2.35,0.37h-3.45v1.39h18.23v-1.39h-3.5
		c-1.12,0-1.9-0.14-2.33-0.43c-0.32-0.21-0.48-0.73-0.48-1.56V8.39C90.31,7.6,90.48,7.1,90.84,6.86z"/>
	<path class="st1" d="M124.27,4.65L111.67,5l-0.71,1.39h2.42c1.41,0,2.45,0.11,3.1,0.32c0.49,0.16,0.74,0.39,0.74,0.69
		c0,0.14-0.06,0.33-0.17,0.58l-9.97,19.23c-0.65,1.28-0.98,2.26-0.98,2.96c0,0.91,0.41,1.61,1.24,2.12
		c0.83,0.51,1.92,0.76,3.27,0.76c3.79,0,7.52-2.01,11.18-6.03l-1.88-0.56c-3.12,3.21-5.61,4.82-7.48,4.82
		c-0.36,0-0.65-0.08-0.88-0.24c-0.22-0.16-0.34-0.42-0.34-0.76c0-0.36,0.21-0.94,0.64-1.73L124.27,4.65z"/>
	<path class="st1" d="M149.39,32.31c0.79,0.5,1.77,0.74,2.96,0.74c3.68,0,7.28-2.03,10.81-6.1l-1.95-0.48
		c-1.46,1.65-3.02,2.96-4.68,3.94c-0.85,0.51-1.62,0.76-2.29,0.76c-0.36,0-0.67-0.09-0.94-0.28c-0.25-0.19-0.37-0.45-0.37-0.8
		c0-0.38,0.1-0.77,0.3-1.15l7.37-14.17l-5.29,0.33l-1.95,3.29c-0.58-1.15-1.71-2.08-3.37-2.77c-1.64-0.71-3.54-1.06-5.69-1.06
		c-2.67,0-5.42,0.52-8.25,1.56c-2.83,1.03-5.15,2.45-6.97,4.26c-1.8,1.8-2.69,3.64-2.69,5.52c0,2.07,1.16,3.78,3.47,5.13
		c2.31,1.34,5.14,2.01,8.49,2.01c1.73,0,3.48-0.29,5.25-0.87c1.77-0.58,3.33-1.44,4.68-2.58l-0.07,0.76
		C148.21,31.15,148.6,31.8,149.39,32.31z M144.37,30.24c-1.62,0.73-3.37,1.1-5.25,1.1c-2.11,0-3.74-0.37-4.88-1.1
		c-1.15-0.74-1.72-1.88-1.72-3.42c0-1.95,0.68-3.84,2.05-5.67c1.39-1.83,2.99-3.14,4.78-3.92c1.82-0.79,3.61-1.19,5.39-1.19
		c1.84,0,3.45,0.4,4.82,1.21c1.37,0.81,2.05,1.8,2.05,3c0,1.66-0.8,3.57-2.39,5.71C147.62,28.08,146.01,29.51,144.37,30.24z"/>
	<path class="st1" d="M187.67,18.02c0,0.46,0.29,0.85,0.88,1.17c0.58,0.32,1.29,0.48,2.12,0.48c1.03,0,1.9-0.22,2.59-0.65
		c0.72-0.45,1.08-1.03,1.08-1.75c0-0.77-0.49-1.41-1.48-1.93c-0.97-0.52-2.18-0.78-3.64-0.78c-1.21,0-2.45,0.2-3.7,0.61
		c-1.26,0.41-2.43,1.06-3.5,1.94c-1.08,0.88-2.63,2.6-4.65,5.17l3.16-7.51l-11.25,0.33l-0.71,1.28h1.48c1.55,0,2.66,0.16,3.33,0.47
		c0.7,0.3,1.04,0.74,1.04,1.34c0,0.47-0.33,1.35-0.98,2.62l-6.03,11.94l5.62-0.24l2.19-4.11c1.08-2.01,2.92-4.63,5.52-7.87
		c1.44-1.79,2.9-3.03,4.38-3.74c0.78-0.36,1.48-0.54,2.09-0.54c0.34,0,0.58,0.04,0.74,0.13c0.16,0.09,0.24,0.22,0.24,0.39
		c0,0.12-0.07,0.29-0.2,0.48C187.78,17.58,187.67,17.83,187.67,18.02z"/>
	<path class="st3" d="M135.06,47.4c-0.56,0-1.09,0.16-1.57,0.48c-0.48,0.32-0.86,0.76-1.13,1.32c-0.27,0.56-0.41,1.19-0.41,1.88
		v0.29c0,0.68,0.14,1.28,0.42,1.83s0.67,0.97,1.16,1.27c0.5,0.3,1.06,0.46,1.67,0.46c1.12,0,1.98-0.43,2.57-1.28l-0.5-0.38
		c-0.27,0.34-0.57,0.59-0.9,0.75c-0.33,0.16-0.71,0.23-1.14,0.23c-0.72,0-1.31-0.27-1.78-0.82c-0.47-0.55-0.71-1.23-0.71-2.06v-0.15
		h5.18v-0.45c0-1.04-0.26-1.86-0.78-2.46C136.64,47.7,135.94,47.4,135.06,47.4z M137.14,50.53h-4.35c0.09-0.75,0.34-1.34,0.75-1.78
		c0.41-0.44,0.92-0.66,1.53-0.66c0.61,0,1.1,0.22,1.47,0.66c0.38,0.44,0.57,1.01,0.6,1.7V50.53z"/>
	<path class="st3" d="M104.54,47.4c-0.56,0-1.09,0.16-1.57,0.48c-0.48,0.32-0.86,0.76-1.13,1.32c-0.27,0.56-0.41,1.19-0.41,1.88
		v0.29c0,0.68,0.14,1.28,0.42,1.83c0.28,0.54,0.66,0.97,1.16,1.27c0.5,0.3,1.06,0.46,1.67,0.46c1.12,0,1.98-0.43,2.57-1.28
		l-0.5-0.38c-0.27,0.34-0.57,0.59-0.9,0.75c-0.33,0.16-0.71,0.23-1.14,0.23c-0.71,0-1.31-0.27-1.78-0.82
		c-0.47-0.55-0.71-1.23-0.71-2.06v-0.15h5.18v-0.45c0-1.04-0.26-1.86-0.77-2.46C106.12,47.7,105.42,47.4,104.54,47.4z M106.62,50.53
		h-4.35c0.09-0.75,0.34-1.34,0.76-1.78c0.41-0.44,0.92-0.66,1.52-0.66c0.61,0,1.1,0.22,1.48,0.66c0.38,0.44,0.57,1.01,0.6,1.7V50.53
		z"/>
	<path class="st3" d="M155.19,47.4c-0.52,0-1,0.12-1.43,0.37c-0.43,0.24-0.78,0.59-1.04,1.04c-0.31-0.94-1.04-1.41-2.18-1.41
		c-0.49,0-0.94,0.11-1.34,0.33c-0.4,0.22-0.74,0.55-1.01,0.99l-0.03-1.18h-0.77v7.26h0.8v-4.98c0.17-0.57,0.44-1,0.81-1.28
		c0.36-0.29,0.8-0.43,1.3-0.43c0.6,0,1.04,0.15,1.33,0.46c0.29,0.31,0.43,0.77,0.44,1.39v4.84h0.8v-4.8
		c0.04-0.52,0.27-0.97,0.66-1.33c0.4-0.36,0.89-0.55,1.46-0.56c0.62,0,1.07,0.16,1.34,0.47c0.27,0.31,0.41,0.79,0.42,1.44v4.78h0.8
		v-4.84C157.54,48.25,156.75,47.4,155.19,47.4z"/>
	<path class="st3" d="M125.05,51.27c-0.35-0.19-0.88-0.36-1.58-0.53c-0.7-0.16-1.19-0.35-1.46-0.55c-0.27-0.2-0.4-0.48-0.4-0.84
		c0-0.37,0.16-0.68,0.48-0.92c0.32-0.23,0.74-0.35,1.27-0.35c0.54,0,0.99,0.14,1.34,0.42c0.36,0.28,0.53,0.63,0.53,1.06h0.81
		c0-0.64-0.24-1.17-0.73-1.57c-0.49-0.4-1.14-0.6-1.95-0.6c-0.75,0-1.36,0.19-1.84,0.56c-0.48,0.37-0.72,0.85-0.72,1.42
		c0,0.36,0.09,0.67,0.26,0.93c0.17,0.25,0.44,0.47,0.79,0.65c0.35,0.18,0.85,0.33,1.5,0.47c0.64,0.14,1.13,0.33,1.44,0.57
		c0.32,0.24,0.48,0.56,0.48,0.96c0,0.38-0.17,0.69-0.52,0.93c-0.34,0.25-0.8,0.37-1.35,0.37c-0.6,0-1.08-0.13-1.45-0.39
		c-0.36-0.26-0.56-0.63-0.59-1.1h-0.8c0,0.63,0.26,1.14,0.79,1.55c0.52,0.41,1.21,0.61,2.06,0.61c0.8,0,1.44-0.18,1.94-0.55
		c0.49-0.37,0.74-0.86,0.74-1.47c0-0.38-0.08-0.7-0.25-0.96C125.66,51.68,125.4,51.46,125.05,51.27z"/>
	<path class="st3" d="M116.15,47.4c-0.56,0-1.09,0.16-1.57,0.48c-0.48,0.32-0.86,0.76-1.13,1.32c-0.27,0.56-0.41,1.19-0.41,1.88
		v0.29c0,0.68,0.14,1.28,0.42,1.83c0.28,0.54,0.66,0.97,1.16,1.27c0.5,0.3,1.06,0.46,1.67,0.46c1.12,0,1.98-0.43,2.57-1.28
		l-0.5-0.38c-0.27,0.34-0.57,0.59-0.9,0.75c-0.33,0.16-0.71,0.23-1.14,0.23c-0.72,0-1.31-0.27-1.78-0.82
		c-0.47-0.55-0.71-1.23-0.71-2.06v-0.15h5.18v-0.45c0-1.04-0.26-1.86-0.78-2.46C117.73,47.7,117.04,47.4,116.15,47.4z M118.23,50.53
		h-4.35c0.09-0.75,0.34-1.34,0.75-1.78c0.41-0.44,0.92-0.66,1.53-0.66c0.61,0,1.1,0.22,1.47,0.66c0.38,0.44,0.57,1.01,0.6,1.7V50.53
		z"/>
	<path class="st3" d="M179.2,51.27c-0.35-0.19-0.88-0.36-1.58-0.53c-0.7-0.16-1.19-0.35-1.46-0.55c-0.27-0.2-0.4-0.48-0.4-0.84
		c0-0.37,0.16-0.68,0.48-0.92c0.32-0.23,0.74-0.35,1.27-0.35c0.54,0,0.99,0.14,1.34,0.42c0.35,0.28,0.53,0.63,0.53,1.06h0.8
		c0-0.64-0.24-1.17-0.73-1.57c-0.49-0.4-1.14-0.6-1.95-0.6c-0.75,0-1.36,0.19-1.84,0.56c-0.48,0.37-0.72,0.85-0.72,1.42
		c0,0.36,0.09,0.67,0.26,0.93c0.17,0.25,0.44,0.47,0.79,0.65c0.35,0.18,0.86,0.33,1.5,0.47c0.64,0.14,1.13,0.33,1.45,0.57
		c0.32,0.24,0.48,0.56,0.48,0.96c0,0.38-0.17,0.69-0.52,0.93c-0.34,0.25-0.8,0.37-1.35,0.37c-0.6,0-1.08-0.13-1.44-0.39
		c-0.36-0.26-0.56-0.63-0.59-1.1h-0.8c0,0.63,0.26,1.14,0.79,1.55c0.53,0.41,1.21,0.61,2.06,0.61c0.8,0,1.44-0.18,1.94-0.55
		c0.49-0.37,0.74-0.86,0.74-1.47c0-0.38-0.08-0.7-0.25-0.96C179.82,51.68,179.56,51.46,179.2,51.27z"/>
	<path class="st3" d="M184.58,54.23c-0.34,0-0.58-0.1-0.73-0.29c-0.15-0.2-0.22-0.5-0.22-0.9v-4.84h1.5v-0.66h-1.5v-1.86h-0.8v1.86
		h-1.33v0.66h1.33v4.84c0,0.62,0.12,1.09,0.37,1.41c0.25,0.32,0.65,0.48,1.2,0.48c0.36,0,0.65-0.04,0.86-0.11l-0.03-0.65
		C184.93,54.21,184.72,54.23,184.58,54.23z"/>
	<path class="st3" d="M187.94,48.69l-0.01-1.15h-0.79v7.26h0.8v-4.98c0.15-0.53,0.39-0.94,0.74-1.22c0.35-0.28,0.77-0.42,1.27-0.42
		c0.19,0,0.37,0.02,0.54,0.05l0.02-0.73c-0.13-0.06-0.31-0.09-0.53-0.09C189.05,47.4,188.37,47.83,187.94,48.69z"/>
	<path class="st3" d="M165.17,49.7c-0.01-0.72-0.25-1.29-0.72-1.69c-0.47-0.4-1.11-0.61-1.92-0.61c-0.78,0-1.44,0.21-1.98,0.63
		c-0.54,0.42-0.81,0.92-0.81,1.5l0.81,0.01c0-0.4,0.18-0.75,0.55-1.03c0.37-0.29,0.83-0.43,1.39-0.43c0.61,0,1.08,0.15,1.4,0.45
		c0.32,0.3,0.48,0.71,0.48,1.22v0.83h-1.45c-1.05,0-1.87,0.21-2.46,0.62c-0.59,0.41-0.88,0.97-0.88,1.68c0,0.59,0.21,1.09,0.65,1.47
		c0.43,0.39,1,0.58,1.69,0.58c0.49,0,0.95-0.1,1.38-0.3c0.44-0.2,0.8-0.48,1.08-0.85c0.02,0.45,0.07,0.79,0.15,1.01h0.86v-0.08
		c-0.15-0.35-0.22-0.87-0.22-1.58V49.7z M164.37,52.79c-0.19,0.43-0.5,0.78-0.92,1.04c-0.42,0.26-0.9,0.39-1.44,0.39
		c-0.48,0-0.87-0.13-1.18-0.4c-0.3-0.27-0.45-0.61-0.45-1.01c0-0.5,0.23-0.89,0.68-1.17c0.45-0.28,1.08-0.43,1.88-0.44h1.43V52.79z"
		/>
	<path class="st3" d="M194.77,47.4c-0.63,0-1.19,0.16-1.68,0.47c-0.49,0.31-0.88,0.75-1.15,1.3c-0.27,0.56-0.41,1.19-0.41,1.89v0.16
		c0,1.12,0.3,2.02,0.9,2.69c0.6,0.68,1.38,1.02,2.35,1.02c0.63,0,1.19-0.15,1.68-0.46c0.49-0.3,0.87-0.74,1.14-1.3
		c0.27-0.56,0.41-1.19,0.41-1.89v-0.17c0-1.12-0.3-2.02-0.9-2.69C196.51,47.74,195.73,47.4,194.77,47.4z M197.21,51.21
		c0,0.91-0.22,1.65-0.67,2.2c-0.45,0.56-1.04,0.83-1.76,0.83c-0.73,0-1.32-0.28-1.77-0.83c-0.45-0.56-0.67-1.27-0.67-2.14v-0.15
		c0-0.91,0.22-1.64,0.68-2.2c0.45-0.56,1.04-0.84,1.75-0.84c0.48,0,0.9,0.13,1.27,0.38c0.37,0.25,0.66,0.61,0.87,1.07
		c0.21,0.46,0.31,0.97,0.31,1.52V51.21z"/>
	<path class="st3" d="M170.31,47.4c-0.56,0-1.09,0.16-1.57,0.48c-0.48,0.32-0.86,0.76-1.13,1.32c-0.27,0.56-0.41,1.19-0.41,1.88
		v0.29c0,0.68,0.14,1.28,0.42,1.83c0.28,0.54,0.67,0.97,1.16,1.27c0.5,0.3,1.06,0.46,1.67,0.46c1.12,0,1.98-0.43,2.57-1.28
		l-0.5-0.38c-0.27,0.34-0.57,0.59-0.9,0.75c-0.33,0.16-0.71,0.23-1.14,0.23c-0.72,0-1.31-0.27-1.78-0.82
		c-0.47-0.55-0.71-1.23-0.71-2.06v-0.15h5.18v-0.45c0-1.04-0.26-1.86-0.78-2.46C171.89,47.7,171.19,47.4,170.31,47.4z M172.39,50.53
		h-4.35c0.09-0.75,0.34-1.34,0.75-1.78c0.41-0.44,0.92-0.66,1.53-0.66c0.61,0,1.1,0.22,1.48,0.66c0.37,0.44,0.57,1.01,0.6,1.7V50.53
		z"/>
	<path class="st3" d="M98.65,52.79c-0.31,0.96-1.04,1.44-2.21,1.44c-1.12,0-1.68-0.69-1.68-2.07v-4.62h-0.8v4.72
		c0.01,0.88,0.21,1.55,0.62,2c0.4,0.45,0.99,0.67,1.76,0.67c1.06,0,1.83-0.35,2.31-1.05l0.01,0.92h0.78v-7.26h-0.81V52.79z"/>
	<rect x="139.93" y="44.49" class="st3" width="0.81" height="10.3"/>
	<path class="st3" d="M41.49,48.69l-0.01-1.15H40.7v7.26h0.8v-4.98c0.15-0.53,0.39-0.94,0.74-1.22c0.35-0.28,0.77-0.42,1.27-0.42
		c0.19,0,0.37,0.02,0.54,0.05l0.02-0.73c-0.13-0.06-0.31-0.09-0.53-0.09C42.6,47.4,41.92,47.83,41.49,48.69z"/>
	<path class="st3" d="M38.13,54.23c-0.34,0-0.58-0.1-0.73-0.29c-0.14-0.2-0.22-0.5-0.22-0.9v-4.84h1.5v-0.66h-1.5v-1.86h-0.81v1.86
		h-1.33v0.66h1.33v4.84c0,0.62,0.13,1.09,0.38,1.41c0.25,0.32,0.65,0.48,1.2,0.48c0.36,0,0.65-0.04,0.86-0.11l-0.03-0.65
		C38.48,54.21,38.27,54.23,38.13,54.23z"/>
	<path class="st3" d="M23.87,47.4c-0.56,0-1.09,0.16-1.57,0.48c-0.48,0.32-0.86,0.76-1.13,1.32c-0.27,0.56-0.41,1.19-0.41,1.88v0.29
		c0,0.68,0.14,1.28,0.42,1.83c0.28,0.54,0.66,0.97,1.16,1.27c0.5,0.3,1.06,0.46,1.67,0.46c1.12,0,1.98-0.43,2.57-1.28l-0.5-0.38
		c-0.27,0.34-0.57,0.59-0.9,0.75c-0.33,0.16-0.71,0.23-1.14,0.23c-0.72,0-1.31-0.27-1.78-0.82c-0.47-0.55-0.71-1.23-0.71-2.06v-0.15
		h5.18v-0.45c0-1.04-0.26-1.86-0.78-2.46C25.44,47.7,24.75,47.4,23.87,47.4z M25.94,50.53h-4.35c0.09-0.75,0.34-1.34,0.75-1.78
		c0.41-0.44,0.92-0.66,1.53-0.66c0.61,0,1.1,0.22,1.47,0.66c0.38,0.44,0.57,1.01,0.6,1.7V50.53z"/>
	<path class="st3" d="M32.76,51.27c-0.35-0.19-0.88-0.36-1.58-0.53c-0.7-0.16-1.19-0.35-1.46-0.55c-0.27-0.2-0.4-0.48-0.4-0.84
		c0-0.37,0.16-0.68,0.48-0.92c0.32-0.23,0.74-0.35,1.27-0.35c0.54,0,0.99,0.14,1.34,0.42c0.36,0.28,0.53,0.63,0.53,1.06h0.81
		c0-0.64-0.24-1.17-0.73-1.57c-0.49-0.4-1.14-0.6-1.95-0.6c-0.75,0-1.36,0.19-1.84,0.56c-0.48,0.37-0.72,0.85-0.72,1.42
		c0,0.36,0.09,0.67,0.26,0.93c0.17,0.25,0.44,0.47,0.79,0.65c0.35,0.18,0.85,0.33,1.5,0.47c0.64,0.14,1.13,0.33,1.44,0.57
		c0.32,0.24,0.48,0.56,0.48,0.96c0,0.38-0.17,0.69-0.52,0.93c-0.34,0.25-0.8,0.37-1.35,0.37c-0.6,0-1.08-0.13-1.45-0.39
		c-0.36-0.26-0.56-0.63-0.59-1.1h-0.8c0,0.63,0.26,1.14,0.79,1.55c0.52,0.41,1.21,0.61,2.06,0.61c0.8,0,1.44-0.18,1.94-0.55
		c0.49-0.37,0.74-0.86,0.74-1.47c0-0.38-0.08-0.7-0.25-0.96C33.37,51.68,33.11,51.46,32.76,51.27z"/>
	<path class="st3" d="M90.72,48.52c-0.51-0.75-1.25-1.12-2.23-1.12c-0.87,0-1.56,0.33-2.06,1c-0.5,0.66-0.75,1.56-0.75,2.7v0.11
		c0,1.14,0.25,2.05,0.76,2.72c0.51,0.67,1.19,1.01,2.04,1.01c0.96,0,1.71-0.34,2.23-1.03v3.69h0.8V47.54h-0.75L90.72,48.52z
		 M90.7,52.99c-0.43,0.84-1.13,1.25-2.09,1.25c-0.67,0-1.19-0.27-1.57-0.8c-0.38-0.53-0.57-1.27-0.57-2.21
		c0-1.03,0.19-1.82,0.57-2.35c0.38-0.53,0.91-0.8,1.58-0.8c0.47,0,0.88,0.12,1.24,0.35c0.36,0.23,0.63,0.57,0.84,1V52.99z"/>
	<polygon class="st3" points="9.86,53.39 4.24,45.03 3.41,45.03 3.41,54.79 4.24,54.79 4.24,46.44 9.85,54.79 10.68,54.79 
		10.68,45.03 9.86,45.03 	"/>
	<path class="st3" d="M17.97,52.79c-0.31,0.96-1.04,1.44-2.21,1.44c-1.12,0-1.68-0.69-1.68-2.07v-4.62h-0.8v4.72
		c0.01,0.88,0.21,1.55,0.62,2c0.4,0.45,0.99,0.67,1.76,0.67c1.06,0,1.83-0.35,2.31-1.05L18,54.79h0.78v-7.26h-0.81V52.79z"/>
	<path class="st3" d="M74.21,44.95c-0.38,0.4-0.57,0.97-0.57,1.71v0.88h-1.2v0.66h1.2v6.6h0.8v-6.6h1.73v-0.66h-1.73v-0.9
		c0-0.51,0.12-0.9,0.37-1.17c0.24-0.27,0.59-0.41,1.03-0.41c0.26,0,0.51,0.03,0.73,0.08l0.06-0.67c-0.26-0.07-0.55-0.11-0.85-0.11
		C75.11,44.35,74.58,44.55,74.21,44.95z"/>
	<path class="st3" d="M80.74,47.4c-0.63,0-1.19,0.16-1.68,0.47c-0.49,0.31-0.88,0.75-1.15,1.3c-0.27,0.56-0.41,1.19-0.41,1.89v0.16
		c0,1.12,0.3,2.02,0.9,2.69c0.6,0.68,1.38,1.02,2.34,1.02c0.63,0,1.19-0.15,1.68-0.46c0.49-0.3,0.87-0.74,1.14-1.3
		c0.27-0.56,0.41-1.19,0.41-1.89v-0.17c0-1.12-0.3-2.02-0.9-2.69C82.49,47.74,81.71,47.4,80.74,47.4z M83.19,51.21
		c0,0.91-0.22,1.65-0.67,2.2c-0.45,0.56-1.04,0.83-1.76,0.83c-0.73,0-1.32-0.28-1.77-0.83c-0.45-0.56-0.67-1.27-0.67-2.14v-0.15
		c0-0.91,0.23-1.64,0.68-2.2c0.45-0.56,1.04-0.84,1.75-0.84c0.48,0,0.9,0.13,1.27,0.38c0.37,0.25,0.66,0.61,0.87,1.07
		c0.21,0.46,0.31,0.97,0.31,1.52V51.21z"/>
	<path class="st3" d="M60.4,47.4c-0.56,0-1.09,0.16-1.57,0.48c-0.48,0.32-0.86,0.76-1.13,1.32c-0.27,0.56-0.41,1.19-0.41,1.88v0.29
		c0,0.68,0.14,1.28,0.42,1.83c0.28,0.54,0.67,0.97,1.16,1.27c0.5,0.3,1.06,0.46,1.67,0.46c1.12,0,1.98-0.43,2.57-1.28l-0.5-0.38
		c-0.27,0.34-0.57,0.59-0.9,0.75c-0.33,0.16-0.71,0.23-1.14,0.23c-0.72,0-1.31-0.27-1.78-0.82c-0.47-0.55-0.71-1.23-0.71-2.06v-0.15
		h5.18v-0.45c0-1.04-0.26-1.86-0.78-2.46C61.98,47.7,61.28,47.4,60.4,47.4z M62.47,50.53h-4.35c0.09-0.75,0.34-1.34,0.75-1.78
		c0.41-0.44,0.92-0.66,1.53-0.66c0.61,0,1.1,0.22,1.48,0.66c0.37,0.44,0.57,1.01,0.6,1.7V50.53z"/>
	<path class="st3" d="M68.33,47.4c-0.49,0-0.94,0.12-1.35,0.35c-0.41,0.23-0.75,0.58-1.02,1.02l-0.03-1.24h-0.76v7.26h0.8v-4.97
		c0.18-0.53,0.47-0.95,0.85-1.26c0.38-0.31,0.82-0.47,1.32-0.47c0.59,0,1.03,0.16,1.3,0.48c0.27,0.32,0.41,0.8,0.41,1.45v4.77h0.8
		v-4.76c-0.01-0.88-0.2-1.53-0.58-1.97C69.69,47.62,69.11,47.4,68.33,47.4z"/>
	<path class="st3" d="M48.32,47.4c-0.63,0-1.19,0.16-1.68,0.47c-0.49,0.31-0.88,0.75-1.15,1.3c-0.27,0.56-0.41,1.19-0.41,1.89v0.16
		c0,1.12,0.3,2.02,0.9,2.69c0.6,0.68,1.38,1.02,2.34,1.02c0.63,0,1.19-0.15,1.68-0.46c0.49-0.3,0.87-0.74,1.14-1.3
		c0.27-0.56,0.41-1.19,0.41-1.89v-0.17c0-1.12-0.3-2.02-0.9-2.69C50.07,47.74,49.28,47.4,48.32,47.4z M50.76,51.21
		c0,0.91-0.22,1.65-0.67,2.2c-0.45,0.56-1.04,0.83-1.76,0.83c-0.73,0-1.32-0.28-1.77-0.83c-0.45-0.56-0.67-1.27-0.67-2.14v-0.15
		c0-0.91,0.23-1.64,0.68-2.2c0.45-0.56,1.04-0.84,1.75-0.84c0.48,0,0.9,0.13,1.27,0.38c0.37,0.25,0.66,0.61,0.87,1.07
		c0.21,0.46,0.31,0.97,0.31,1.52V51.21z"/>
</g>
</svg>
